<svg width="24" height="13" viewBox="0 0 24 13" fill="none" xmlns="http://www.w3.org/2000/svg">
<path d="M21.211 6.49515C21.4062 6.29989 21.4062 5.98331 21.211 5.78805L18.029 2.60607C17.8337 2.41081 17.5171 2.41081 17.3219 2.60607C17.1266 2.80133 17.1266 3.11791 17.3219 3.31317L20.1503 6.1416L17.3219 8.97003C17.1266 9.16529 17.1266 9.48187 17.3219 9.67714C17.5171 9.8724 17.8337 9.8724 18.029 9.67714L21.211 6.49515ZM6.85742 6.1416V6.6416H20.8574V6.1416V5.6416H6.85742V6.1416Z" fill="#FF0000"/>
<path d="M2.50387 5.78805C2.30861 5.98331 2.30861 6.29989 2.50387 6.49516L5.68585 9.67714C5.88111 9.8724 6.19769 9.8724 6.39296 9.67714C6.58822 9.48187 6.58822 9.16529 6.39296 8.97003L3.56453 6.1416L6.39296 3.31318C6.58822 3.11791 6.58822 2.80133 6.39296 2.60607C6.19769 2.41081 5.88111 2.41081 5.68585 2.60607L2.50387 5.78805ZM16.8574 6.1416L16.8574 5.6416L2.85742 5.6416L2.85742 6.1416L2.85742 6.6416L16.8574 6.6416L16.8574 6.1416Z" fill="#FF0000"/>
</svg>
